#!OML:ASF X:\für Bonn\!DataBase\2005_08_12_Daniel\c3d\Daniel.ASF
:FULLY-SPECIFIED
:DEGREES
339
root 21.7953 1.31394 0.0123032 -1275.88 262.499 80.6453
lowerback 29.531 -2.38526 -3.28798
upperback 6.54629 -4.88394 -1.07298
thorax -8.68925 -2.59692 2.48588
lowerneck -8.37245 2.55016 -7.56934
upperneck 5.59873 4.16068 0.920607
head 3.11976 1.90319 1.85308
rclavicle -2.78299e-014 -9.93923e-015
rhumerus -399.709 -2.1966 278.265
rradius 28.0553
rwrist 25.7676
rhand -24.0982 735.682
rfingers 7.12502
rthumb 2.38247 705.715
lclavicle -2.78299e-014 -9.93923e-015
lhumerus -397.571 1.60233 -271.182
lradius 59.2838
lwrist -5.62613
lhand -23.2346 -727.579
lfingers 7.12502
lthumb 3.21659 22.3766
rfemur 0.354702 -10.7186 6.66307
rtibia 62.786
rfoot 395.536 -16.6822
rtoes 19.0027
lfemur -2.01735 -16.0986 -23.4766
ltibia 55.7603
lfoot 18.3229 4.2025
ltoes 0.892184
340
root 21.7897 1.31764 0.0156532 -1276.43 262.402 81.5003
lowerback 29.2081 -2.40425 -3.3645
upperback 6.45056 -4.90821 -1.09615
thorax -8.63497 -2.60026 2.49474
lowerneck -8.65521 2.48949 -7.60765
upperneck 5.66755 4.10521 0.990686
head 3.19914 1.87554 1.89059
rclavicle -2.70347e-014 4.45402e-014
rhumerus -399.978 -2.94165 278.704
rradius 27.0937
rwrist 26.7176
rhand -24.2849 735.489
rfingers 7.12502
rthumb 2.20226 705.52
lclavicle -2.70347e-014 4.45402e-014
lhumerus -397.65 2.0512 -271.335
lradius 57.6001
lwrist -6.22166
lhand -23.0336 -727.293
lfingers 7.12502
lthumb 3.41067 22.6599
rfemur 0.661766 -10.5056 6.83587
rtibia 61.5314
rfoot 396.096 -16.7877
rtoes 19.444
lfemur -0.715915 -16.5374 -23.965
ltibia 53.2968
lfoot 17.9519 4.37734
ltoes 0.568024
341
root 21.7825 1.32158 0.0193279 -1277.1 262.292 82.476
lowerback 28.8824 -2.42887 -3.4446
upperback 6.34856 -4.94179 -1.1369
thorax -8.58653 -2.6076 2.48916
lowerneck -8.85293 2.42941 -7.61547
upperneck 5.68676 4.03997 1.0433
head 3.24637 1.84474 1.91275
rclavicle -4.69132e-014 9.93426e-014
rhumerus -400.286 -3.67574 279.146
rradius 26.1912
rwrist 27.6568
rhand -24.4099 735.34
rfingers 7.12502
rthumb 2.08144 705.37
lclavicle -4.69132e-014 9.93426e-014
lhumerus -397.754 2.49239 -271.508
lradius 55.9603
lwrist -6.79288
lhand -22.8561 -726.97
lfingers 7.12502
lthumb 3.58211 22.9795
rfemur 1.01541 -10.296 6.97258
rtibia 60.1888
rfoot 396.416 -16.6874
rtoes 20.0671
lfemur 0.562737 -16.9728 -24.4752
ltibia 50.9021
lfoot 17.6404 4.58184
ltoes -0.199389
342
root 21.777 1.32509 0.0233742 -1277.76 262.184 83.4237
lowerback 28.575 -2.44378 -3.53004
upperback 6.2649 -4.96446 -1.16269
thorax -8.52418 -2.61133 2.49976
lowerneck -9.11084 2.36147 -7.67556
upperneck 5.75228 3.97512 1.11461
head 3.32061 1.81224 1.95333
rclavicle -3.97569e-014 9.79511e-014
rhumerus -400.6 -4.38284 279.612
rradius 25.3335
rwrist 28.5967
rhand -24.6218 735.233
rfingers 7.12502
rthumb 1.87683 705.261
lclavicle -3.97569e-014 9.79511e-014
lhumerus -397.832 2.93175 -271.668
lradius 54.374
lwrist -7.3773
lhand -22.6598 -726.679
lfingers 7.12502
lthumb 3.77166 23.2675
rfemur 1.43816 -10.036 7.11676
rtibia 58.7257
rfoot 396.368 -16.524
rtoes 20.6976
lfemur 1.80618 -17.3976 -24.9912
ltibia 48.5946
lfoot 17.4881 4.82548
ltoes -1.53058
343
root 21.7711 1.3288 0.0285944 -1278.44 262.074 84.4247
lowerback 28.2084 -2.47451 -3.61284
upperback 6.17955 -5.00414 -1.20024
thorax -8.4341 -2.62399 2.49747
lowerneck -9.2933 2.31452 -7.72234
upperneck 5.7594 3.93064 1.158
head 3.35962 1.7905 1.97959
rclavicle -4.53229e-014 1.15059e-013
rhumerus -400.942 -5.00564 280.023
rradius 24.5628
rwrist 29.4633
rhand -24.8127 735.065
rfingers 7.12502
rthumb 1.69246 705.092
lclavicle -4.53229e-014 1.15059e-013
lhumerus -397.897 3.40527 -271.859
lradius 52.789
lwrist -7.94816
lhand -22.559 -726.435
lfingers 7.12502
lthumb 3.86894 23.51
rfemur 1.8768 -9.7497 7.2626
rtibia 57.1381
rfoot 395.955 -16.1408
rtoes 20.5604
lfemur 2.9396 -17.8015 -25.4963
ltibia 46.3925
lfoot 17.5505 5.11416
ltoes -2.93596
344
root 21.7682 1.33296 0.0335569 -1279.19 261.964 85.5145
lowerback 27.8497 -2.49293 -3.69602
upperback 6.07886 -5.02774 -1.24986
thorax -8.36642 -2.62724 2.47757
lowerneck -9.47899 2.25893 -7.74017
upperneck 5.81529 3.87292 1.20444
head 3.41749 1.76201 2.00219
rclavicle -1.04163e-013 1.61426e-013
rhumerus -401.35 -5.71616 280.479
rradius 23.8125
rwrist 30.4367
rhand -24.9758 735.034
rfingers 7.12502
rthumb 1.53492 705.06
lclavicle -1.04163e-013 1.61426e-013
lhumerus -397.988 3.80664 -272.053
lradius 51.2583
lwrist -8.5911
lhand -22.4485 -726.152
lfingers 7.12502
lthumb 3.97568 23.791
rfemur 2.36031 -9.43168 7.40695
rtibia 55.3797
rfoot 395.508 -15.3525
rtoes 19.6667
lfemur 3.99679 -18.2454 -26.031
ltibia 44.323
lfoot 17.8792 5.47555
ltoes -4.03584
345
root 21.7698 1.33669 0.0390884 -1279.92 261.853 86.5956
lowerback 27.4688 -2.51153 -3.79804
upperback 5.98749 -5.05479 -1.28965
thorax -8.2734 -2.63329 2.47831
lowerneck -9.61654 2.20737 -7.78876
upperneck 5.79157 3.8171 1.26585
head 3.43754 1.73661 2.03234
rclavicle -6.59965e-014 9.71063e-014
rhumerus -401.784 -6.39063 280.955
rradius 23.1415
rwrist 31.3937
rhand -25.0523 735.088
rfingers 7.12502
rthumb 1.46101 705.113
lclavicle -6.59965e-014 9.71063e-014
lhumerus -398.072 4.20899 -272.26
lradius 49.7794
lwrist -9.2128
lhand -22.4102 -725.954
lfingers 7.12502
lthumb 4.0127 23.9876
rfemur 2.93044 -9.07571 7.55961
rtibia 53.4321
rfoot 395.017 -14.53
rtoes 19.0058
lfemur 4.94191 -18.7068 -26.5604
ltibia 42.4015
lfoot 18.6738 5.79068
ltoes -4.19371
346
root 21.7651 1.34059 0.043443 -1280.64 261.743 87.6436
lowerback 27.0952 -2.52501 -3.90452
upperback 5.90345 -5.07745 -1.34046
thorax -8.1758 -2.63794 2.46798
lowerneck -9.82902 2.15332 -7.78988
upperneck 5.85735 3.76186 1.31285
head 3.50451 1.70959 2.05314
rclavicle 6.36111e-015 5.16467e-014
rhumerus -402.239 -7.02823 281.4
rradius 22.4889
rwrist 32.3702
rhand -25.0684 735.213
rfingers 7.12502
rthumb 1.44554 705.238
lclavicle 6.36111e-015 5.16467e-014
lhumerus -398.142 4.59277 -272.494
lradius 48.3097
lwrist -9.89313
lhand -22.4714 -725.799
lfingers 7.12502
lthumb 3.95356 24.1445
rfemur 3.68961 -8.66824 7.7379
rtibia 51.2914
rfoot 394.125 -14.1419
rtoes 18.4833
lfemur 5.78853 -19.21 -27.1076
ltibia 40.6625
lfoot 19.9903 6.1316
ltoes -2.82996
347
root 21.7546 1.34431 0.046127 -1281.37 261.628 88.711
lowerback 26.752 -2.53097 -4.0303
upperback 5.79188 -5.09531 -1.38448
thorax -8.12126 -2.63715 2.47757
lowerneck -9.97758 2.101 -7.81169
upperneck 5.90629 3.70499 1.36998
head 3.55295 1.6824 2.07885
rclavicle -5.04913e-014 5.31376e-014
rhumerus -402.773 -7.63348 281.871
rradius 21.8732
rwrist 33.3699
rhand -25.0876 735.319
rfingers 7.12502
rthumb 1.42695 705.344
lclavicle -5.04913e-014 5.31376e-014
lhumerus -398.297 4.98318 -272.729
lradius 46.9132
lwrist -10.6163
lhand -22.5294 -725.673
lfingers 7.12502
lthumb 3.89759 24.2709
rfemur 4.53148 -8.2015 7.9333
rtibia 49.0218
rfoot 392.921 -14.0905
rtoes 17.6894
lfemur 6.51507 -19.7331 -27.6437
ltibia 39.0814
lfoot 21.5793 6.45404
ltoes -1.39636
348
root 21.7457 1.34837 0.0487099 -1282.02 261.512 89.7051
lowerback 26.3652 -2.54103 -4.15179
upperback 5.71041 -5.11432 -1.42312
thorax -8.00995 -2.64058 2.48665
lowerneck -10.22 2.04124 -7.8442
upperneck 6.00028 3.64923 1.41602
head 3.63593 1.65345 2.1064
rclavicle 2.70347e-014 1.51449e-014
rhumerus -403.249 -8.38554 282.435
rradius 21.2197
rwrist 34.6131
rhand -25.0994 735.49
rfingers 7.12502
rthumb 1.41552 705.515
lclavicle 2.70347e-014 1.51449e-014
lhumerus -398.372 5.40062 -272.99
lradius 45.5182
lwrist -11.4186
lhand -22.6077 -725.596
lfingers 7.12502
lthumb 3.82197 24.349
rfemur 5.40242 -7.69474 8.14153
rtibia 46.6973
rfoot 391.635 -14.1185
rtoes 17.049
lfemur 7.10507 -20.3088 -28.1779
ltibia 37.6823
lfoot 23.0593 6.72103
ltoes -1.49168
